<?xml version="1.0" encoding="UTF-8" standalone="no" ?>
<!DOCTYPE svg PUBLIC "-//W3C//DTD SVG 1.1//EN" "http://www.w3.org/Graphics/SVG/1.1/DTD/svg11.dtd">
<svg xmlns="http://www.w3.org/2000/svg" xmlns:xlink="http://www.w3.org/1999/xlink" version="1.1" width="1080" height="1080" viewBox="0 0 1080 1080" xml:space="preserve">
<desc>Created with Fabric.js 4.2.0</desc>
<defs>
</defs>
<rect x="0" y="0" width="100%" height="100%" fill="transparent"></rect>
<g transform="matrix(1 0 0 1 540 540)" id="dae10728-2ad9-4187-b509-a27dc5ce4e02"  >
</g>
<g transform="matrix(1 0 0 1 540 540)" id="ddd88217-8ab3-4daa-b723-788cd2a6dc22"  >
<rect style="stroke: none; stroke-width: 1; stroke-dasharray: none; stroke-linecap: butt; stroke-dashoffset: 0; stroke-linejoin: miter; stroke-miterlimit: 4; fill: rgb(255,255,255); fill-opacity: 0; fill-rule: nonzero; opacity: 1;" vector-effect="non-scaling-stroke"  x="-540" y="-540" rx="0" ry="0" width="1080" height="1080" />
</g>
<g transform="matrix(0.82 0 0 0.82 484.82 300.27)"  >
<path style="stroke: none; stroke-width: 1; stroke-dasharray: none; stroke-linecap: butt; stroke-dashoffset: 0; stroke-linejoin: miter; stroke-miterlimit: 4; fill: rgb(0,0,0); fill-rule: nonzero; opacity: 0.45;" vector-effect="non-scaling-stroke"  transform=" translate(-195.97, -116.15)" d="M 391.93 0 L 261.23 232.3 L 0 232.3 L 130.6 0 z" stroke-linecap="round" />
</g>
<g transform="matrix(0.82 0 0 0.82 592.45 300.27)"  >
<path style="stroke: none; stroke-width: 1; stroke-dasharray: none; stroke-linecap: butt; stroke-dashoffset: 0; stroke-linejoin: miter; stroke-miterlimit: 4; fill: rgb(208,208,208); fill-rule: nonzero; opacity: 0.6;" vector-effect="non-scaling-stroke"  transform=" translate(-326.56, -116.15)" d="M 261.23 232.3 L 522.53 232.3 L 391.94 0 L 130.6 0 z" stroke-linecap="round" />
</g>
<g transform="matrix(0.82 0 0 0.82 431.23 395.48)"  >
<path style="stroke: none; stroke-width: 1; stroke-dasharray: none; stroke-linecap: butt; stroke-dashoffset: 0; stroke-linejoin: miter; stroke-miterlimit: 4; fill: rgb(208,208,208); fill-rule: nonzero; opacity: 0.8;" vector-effect="non-scaling-stroke"  transform=" translate(-130.62, -232.25)" d="M 130.6 464.5 L 261.23 232.3 L 130.6 0 L 0 232.3 z" stroke-linecap="round" />
</g>
<g transform="matrix(0.82 0 0 0.82 593.54 778.78)"  >
<path style="stroke: none; stroke-width: 1; stroke-dasharray: none; stroke-linecap: butt; stroke-dashoffset: 0; stroke-linejoin: miter; stroke-miterlimit: 4; fill: rgb(0,0,0); fill-rule: nonzero; opacity: 0.45;" vector-effect="non-scaling-stroke"  transform=" translate(-327.89, -696.82)" d="M 131.88 812.97 L 262.58 580.6700000000001 L 523.9 580.6700000000001 L 393.2 812.97 z" stroke-linecap="round" />
</g>
<g transform="matrix(0.82 0 0 0.82 485.88 778.78)"  >
<path style="stroke: none; stroke-width: 1; stroke-dasharray: none; stroke-linecap: butt; stroke-dashoffset: 0; stroke-linejoin: miter; stroke-miterlimit: 4; fill: rgb(208,208,208); fill-rule: nonzero; opacity: 0.6;" vector-effect="non-scaling-stroke"  transform=" translate(-197.24, -696.82)" d="M 262.58 580.67 L 1.28 580.67 L 131.88 812.97 L 393.2 812.97 z" stroke-linecap="round" />
</g>
<g transform="matrix(0.82 0 0 0.82 647.66 682.62)"  >
<path style="stroke: none; stroke-width: 1; stroke-dasharray: none; stroke-linecap: butt; stroke-dashoffset: 0; stroke-linejoin: miter; stroke-miterlimit: 4; fill: rgb(208,208,208); fill-rule: nonzero; opacity: 0.8;" vector-effect="non-scaling-stroke"  transform=" translate(-393.24, -580.71)" d="M 393.2 348.45 L 262.58 580.67 L 393.2 812.97 L 523.9 580.6700000000001 z" stroke-linecap="round" />
</g>
</svg>