<?xml version="1.0" encoding="UTF-8"?>
<svg width="173px" height="37px" viewBox="0 0 173 37" version="1.1" xmlns="http://www.w3.org/2000/svg" xmlns:xlink="http://www.w3.org/1999/xlink">
    <!-- Generator: sketchtool 57.1 (101010) - https://sketch.com -->
    <title>0E71BBE3-0EC2-4C98-989E-7DEB43B809FA</title>
    <desc>Created with sketchtool.</desc>
    <g id="Design" stroke="none" stroke-width="1" fill="none" fill-rule="evenodd">
        <g id="NFT_Vision_Hack_2021_1440" transform="translate(-39.000000, -19.000000)">
            <g id="NHV---Logo" transform="translate(39.000000, 19.000000)">
                <g id="Group-34" fill="#4DBFFF">
                    <path d="M87,0 C88.1045695,-2.02906125e-16 89,0.8954305 89,2 L89,35 C89,36.1045695 88.1045695,37 87,37 L2,37 C0.8954305,37 1.3527075e-16,36.1045695 0,35 L0,2 C-1.3527075e-16,0.8954305 0.8954305,2.02906125e-16 2,0 L87,0 Z M14.0412518,6 L7,6 L7,31 L12.9032717,31 L12.9032717,16.9859155 L12.8677098,13.6056338 L12.9743954,13.6056338 C13.330016,14.4741827 13.8990004,15.4718254 14.6813656,16.5985915 L14.6813656,16.5985915 L25.314367,31 L32,31 L32,6 L26.0967283,6 L26.0967283,19.9788732 L26.1322902,23.3239437 L26.0256046,23.3239437 C25.646276,22.4084461 25.0772916,21.3873296 24.3186344,20.2605634 L24.3186344,20.2605634 L14.0412518,6 Z M55,6 L35,6 L35,31 L41.2199313,31 L41.2199313,20.9295775 L54.4158076,20.9295775 L54.4158076,16.2816901 L41.2199313,16.2816901 L41.2199313,10.7535211 L55,10.7535211 L55,6 Z M81,6 L57,6 L57,11.0352113 L65.7402985,11.0352113 L65.7402985,31 L72.2597015,31 L72.2597015,11.0352113 L81,11.0352113 L81,6 Z" id="Combined-Shape"></path>
                </g>
                <g id="Hack" transform="translate(93.000000, 19.000000)" fill="#FFFFFF" fill-rule="nonzero">
                    <path d="M16.4240713,17.3999998 L12.1720358,17.3999998 L12.1720358,10.3679999 L4.22867269,10.3679999 L4.22867269,17.3999998 L-1.24502178e-13,17.3999998 L-1.24502178e-13,0.360000014 L4.22867269,0.360000014 L4.22867269,7.15199992 L12.1720358,7.15199992 L12.1720358,0.360000014 L16.4240713,0.360000014 L16.4240713,17.3999998 Z M23.8768149,17.7600002 C22.3971615,17.7600002 21.2329253,17.4320035 20.3840715,16.7760002 C19.5352177,16.1199969 19.1107972,15.2320057 19.1107972,14.1120001 C19.1107972,12.9599943 19.546899,12.0800031 20.4191158,11.472 C20.8396488,11.1839986 21.3653073,10.9480009 21.9961069,10.764 C22.6269065,10.5799991 23.4484913,10.4320005 24.4608857,10.32 L28.6895583,9.93599995 L28.6895583,9.57599993 C28.6895583,8.91999663 28.4831887,8.42400157 28.0704432,8.08799988 C27.6576978,7.75199819 27.0619516,7.58399986 26.2831866,7.58399986 C25.5044216,7.58399986 24.881419,7.73999987 24.41416,8.05199988 C23.9469011,8.36400145 23.6821249,8.81599695 23.6198238,9.40799993 L19.4612397,9.40799993 C19.6169926,8.04799308 20.3061893,6.98000372 21.5288503,6.20399981 C22.7515113,5.42799591 24.3362742,5.03999977 26.2831866,5.03999977 C28.5104544,5.03999977 30.1458363,5.45999559 31.1893813,6.29999982 C32.2329264,7.13999985 32.7546911,8.43999109 32.7546911,10.2 L32.7546911,13.8960001 C32.7546911,15.3840076 32.8481415,16.5519959 33.035045,17.4000002 L29.0400008,17.4000002 C28.9309737,16.8559975 28.876461,16.1760043 28.876461,15.3600001 C28.5026538,16.1120039 27.8796511,16.6999981 27.0074344,17.1240002 C26.1352176,17.5480023 25.0916882,17.7600002 23.8768149,17.7600002 Z M25.4187605,15.2639995 C26.4155796,15.2639995 27.2215892,15.0200019 27.8368135,14.5319995 C28.4520378,14.0439971 28.7596453,13.4000035 28.7596453,12.5999995 L28.7596453,11.8799995 L25.629026,12.2159995 C24.7879599,12.3280001 24.1805324,12.5079983 23.8067252,12.7559995 C23.432918,13.0040008 23.2460173,13.3599972 23.2460173,13.8239995 C23.2460173,14.2720017 23.4407056,14.6239982 23.830088,14.8799995 C24.2194705,15.1360007 24.7490227,15.2639995 25.4187605,15.2639995 Z M42.1699116,17.7600002 C40.7058335,17.7600002 39.4208906,17.5000028 38.3150444,16.9800002 C37.2091982,16.4599976 36.3564633,15.716005 35.7568143,14.7480001 C35.1571653,13.7799952 34.8573453,12.6560064 34.8573453,11.376 C34.8573453,10.0799935 35.1532716,8.95600467 35.7451329,8.00399988 C36.3369943,7.05199508 37.1897291,6.32000238 38.303363,5.8079998 C39.4169968,5.29599722 40.7291961,5.03999977 42.2400001,5.03999977 C44.1246113,5.03999977 45.6587552,5.42799591 46.8424779,6.20399981 C48.0262006,6.98000372 48.7660162,8.07199284 49.0619469,9.47999993 L45.0435399,10.152 C44.8877869,9.44799641 44.5568167,8.90800179 44.0506195,8.5319999 C43.5444223,8.155998 42.9019509,7.96799988 42.1231859,7.96799988 C41.1575174,7.96799988 40.3943392,8.26399693 39.8336284,8.85599991 C39.2729177,9.44800289 38.9925665,10.2639948 38.9925665,11.304 C38.9925665,12.3920055 39.2768114,13.2479969 39.8453099,13.8720001 C40.4138083,14.4960032 41.1808802,14.8080001 42.1465488,14.8080001 C42.940889,14.8080001 43.5833604,14.616002 44.0739824,14.2320001 C44.5646043,13.8479982 44.8955744,13.2960037 45.0669027,12.576 L49.0619469,13.3200001 C48.7815915,14.696007 48.0223071,15.7799962 46.7840708,16.5720002 C45.5458346,17.3640042 44.0077969,17.7600002 42.1699116,17.7600002 Z M57.7762813,12.24 L55.5568123,14.184 L55.5568123,17.4 L51.5150425,17.4 L51.5150425,6.39488462e-15 L55.5568123,6.39488462e-15 L55.5568123,10.272 L60.5330955,5.4 L65.5093786,5.4 L60.7199981,9.96 L65.6729184,17.4 L61.1171663,17.4 L57.7762813,12.24 Z" id="NFTHackVision"></path>
                </g>
                <g id="Vision" transform="translate(93.000000, 0.000000)" fill="#FFFFFF" fill-rule="nonzero">
                    <path d="M1.67917967e-13,0.287999994 L4.65882361,0.287999994 L8.65882368,11.4719998 C8.92549168,12.2240036 9.10588204,12.9199966 9.20000016,13.5599998 L9.2941178,13.5599998 C9.37254957,13.0479973 9.55293993,12.3520042 9.83529428,11.4719998 L13.8352944,0.287999994 L18.494118,0.287999994 L11.7647061,17.3279998 L6.72941188,17.3279998 L1.67917967e-13,0.287999994 Z M20.235295,5.32800007 L24.3058833,5.32800007 L24.3058833,17.3280001 L20.235295,17.3280001 L20.235295,5.32800007 Z M20.1411775,6.39488462e-15 L24.4235305,6.39488462e-15 L24.4235305,3.57600002 L20.1411775,3.57600002 L20.1411775,6.39488462e-15 Z M33.5999996,17.6880003 C31.9686188,17.6880003 30.5490252,17.4560026 29.341176,16.9920003 C28.1333268,16.5279979 27.1686305,15.8400048 26.4470583,14.9280002 L28.6117642,13.1040001 C29.7411816,14.3840066 31.4744976,15.0240002 33.8117643,15.0240002 C35.3960859,15.0240002 36.1882349,14.6560039 36.1882349,13.9200002 C36.1882349,13.5999986 36.070589,13.3680001 35.8352937,13.2240001 C35.5999984,13.0799994 35.1607871,12.9679998 34.5176466,12.8880001 L31.3176466,12.5040001 C29.9058748,12.3119991 28.8549049,11.9160031 28.1647054,11.3160001 C27.4745058,10.715997 27.1294112,9.8880053 27.1294112,8.83199998 C27.1294112,7.61599386 27.6666608,6.6680033 28.741176,5.98799988 C29.8156912,5.30799645 31.3411661,4.96799984 33.3176466,4.96799984 C34.7294184,4.96799984 35.9882294,5.15199801 37.0941173,5.51999986 C38.2000051,5.88800171 39.0823493,6.42399637 39.7411761,7.12799992 L37.8588231,9.07199999 C37.2470554,8.57599749 36.5490231,8.2040012 35.7647055,7.95599995 C34.9803878,7.7079987 34.0627499,7.58399993 33.0117643,7.58399993 C32.243133,7.58399993 31.6784327,7.66399914 31.3176466,7.82399994 C30.9568605,7.98400075 30.7764701,8.2399982 30.7764701,8.59199997 C30.7764701,8.88000142 30.8862729,9.09599927 31.1058819,9.23999999 C31.3254908,9.38400072 31.6941146,9.4959996 32.2117642,9.57600001 L35.7647055,9.98400002 C37.1764773,10.176001 38.1999964,10.5639971 38.8352937,11.1480001 C39.470591,11.732003 39.7882349,12.5519948 39.7882349,13.6080002 C39.7882349,14.8880066 39.2588285,15.8879966 38.1999996,16.6080003 C37.1411708,17.3280039 35.6078528,17.6880003 33.5999996,17.6880003 Z M42.211766,5.32800007 L46.2823542,5.32800007 L46.2823542,17.3280001 L42.211766,17.3280001 L42.211766,5.32800007 Z M42.1176462,6.39488462e-15 L46.3999992,6.39488462e-15 L46.3999992,3.57600002 L42.1176462,3.57600002 L42.1176462,6.39488462e-15 Z M56.0000002,17.6880003 C54.5568557,17.6880003 53.2784371,17.4360028 52.1647061,16.9320003 C51.050975,16.4279977 50.184317,15.696005 49.5647061,14.7360002 C48.9450951,13.7759954 48.6352943,12.6320068 48.6352943,11.3040001 C48.6352943,9.99199346 48.9450951,8.85600478 49.5647061,7.89599995 C50.184317,6.93599511 51.050975,6.20800236 52.1647061,5.71199987 C53.2784371,5.21599737 54.5568557,4.96799984 56.0000002,4.96799984 C57.4431447,4.96799984 58.7176417,5.21599737 59.8235296,5.71199987 C60.9294175,6.20800236 61.7921539,6.93599511 62.4117649,7.89599995 C63.0313758,8.85600478 63.3411767,9.99199346 63.3411767,11.3040001 C63.3411767,12.6320068 63.0313758,13.7759954 62.4117649,14.7360002 C61.7921539,15.696005 60.9294175,16.4279977 59.8235296,16.9320003 C58.7176417,17.4360028 57.4431447,17.6880003 56.0000002,17.6880003 Z M56.0000007,14.9280001 C56.988241,14.9280001 57.7686253,14.6120032 58.3411772,13.9800001 C58.9137291,13.3479969 59.2000008,12.4560058 59.2000008,11.3040001 C59.2000008,10.1519943 58.9137291,9.26800315 58.3411772,8.65200007 C57.7686253,8.03599699 56.988241,7.72800007 56.0000007,7.72800007 C54.9960741,7.72800007 54.2078467,8.03599699 53.6352948,8.65200007 C53.062743,9.26800315 52.7764713,10.1519943 52.7764713,11.3040001 C52.7764713,12.4560058 53.062743,13.3479969 53.6352948,13.9800001 C54.2078467,14.6120032 54.9960741,14.9280001 56.0000007,14.9280001 Z M65.7176478,5.32799985 L69.670589,5.32799985 L69.670589,7.82399989 C70.6274566,5.91999034 72.2509698,4.96799984 74.5411774,4.96799984 C76.1725581,4.96799984 77.4156829,5.44799505 78.2705892,6.40799987 C79.1254954,7.36799988 79.5529422,8.77599063 79.5529422,10.6319999 L79.5529422,17.3280001 L75.4823538,17.3280001 L75.4823538,11.208 C75.4823538,10.1359946 75.2627482,9.34000252 74.8235303,8.81999991 C74.3843124,8.2999973 73.7098093,8.0399999 72.8000009,8.0399999 C71.8431333,8.0399999 71.1019642,8.3399969 70.5764714,8.93999991 C70.0509786,9.54000292 69.7882361,10.3839945 69.7882361,11.472 L69.7882361,17.3280001 L65.7176478,17.3280001 L65.7176478,5.32799985 Z" id="NFTHackVision"></path>
                </g>
            </g>
        </g>
    </g>
</svg>